<?xml version="1.0" encoding="UTF-8"?>
<svg id="_Слой_1" data-name="Слой_1" xmlns="http://www.w3.org/2000/svg" version="1.1" viewBox="0 0 256 256">
  <!-- Generator: Adobe Illustrator 29.5.1, SVG Export Plug-In . SVG Version: 2.1.0 Build 141)  -->
  <path d="M0,69.1h188.7c11.7,0,17.7,12.9,11.2,22.7l-38,59.1,1.5,1.6c4.2,4.2,9.8,2.6,13-2.3l54.2-80.9h22.7c2.1,0,3.3,2.3,2.2,4l-67.3,103.6c-8,12.3-25.5,13.8-35.5,3l-51.4-55.9c-1.7-1.8-4-2.8-6.5-2.8h-27c-7.2,0-15.1-3-20.1-8.1l-8.9-9.7h72.1c3.6,0,7,1.5,9.5,4.1l24.4,26.4,22.7-35.1c2.6-4-.3-9.2-5-9.2H31.2c-7.8,0-15.3-3.3-20.7-9L0,69.1Z" fill="#fff"/>
</svg>