<?xml version="1.0" encoding="UTF-8"?>
<svg id="_Слой_1" xmlns="http://www.w3.org/2000/svg" version="1.1" viewBox="0 0 256 256">
  <!-- Generator: Adobe Illustrator 29.5.1, SVG Export Plug-In . SVG Version: 2.1.0 Build 141)  -->
  <path d="M38,65h122.8c7.6,0,11.5,8.4,7.3,14.8l-24.7,38.4,1,1c2.7,2.7,6.3,1.7,8.5-1.5l35.3-52.7h14.8c1.4,0,2.2,1.5,1.4,2.6l-43.8,67.4c-5.2,8-16.6,9-23.1,1.9l-33.5-36.4c-1.1-1.2-2.6-1.8-4.2-1.8h-17.6c-4.7,0-9.8-2-13.1-5.3l-5.8-6.3h46.9c2.3,0,4.6,1,6.2,2.7l15.9,17.2,14.8-22.8c1.7-2.6-.2-6-3.3-6H58.3c-5.1,0-10-2.1-13.5-5.9l-6.8-7.3Z" fill="#fff"/>
  <g>
    <path d="M17.8,190.4h-7L0,160.3h6.9l7.6,22.7,7.8-22.7h6.4l-10.9,30.1Z" fill="#fff"/>
    <path d="M38,190.4v-30.1h6.4v30.1h-6.4Z" fill="#fff"/>
    <path d="M74.2,184h-11.7l-2.3,6.5h-6.4l11.3-30.1h7l11.2,30.1h-6.8l-2.3-6.5ZM64.3,178.9h8.1l-4-11.6-4.1,11.6Z" fill="#fff"/>
    <path d="M92.9,190.4v-30.1h6.4v24.4h13.1v5.7h-19.5Z" fill="#fff"/>
    <path d="M140.4,184h-11.7l-2.3,6.5h-6.4l11.3-30.1h7l11.2,30.1h-6.8l-2.3-6.5ZM130.5,178.9h8.1l-4-11.6-4.1,11.6Z" fill="#fff"/>
    <path d="M164.8,169.4v21h-5.8v-30.1h6.9l13.1,20v-20h5.9v30.1h-6.2l-13.8-21Z" fill="#fff"/>
    <path d="M195.2,175.3c0-8.8,6.6-15.6,15.1-15.6s14.1,5.3,15.2,13h-6.7c-.7-4.3-4.1-7.3-8.3-7.3s-8.6,4.1-8.6,9.9,3.5,10,8.6,10,7.6-3,8.3-7.3h6.7c-1,7.8-7.3,13-15.2,13s-15.1-6.9-15.1-15.7Z" fill="#fff"/>
    <path d="M256,190.4h-20.2v-30.1h20v5.5h-13.6v6.3h12.3v5.5h-12.3v7.2h13.9v5.5Z" fill="#fff"/>
  </g>
</svg>