<?xml version="1.0" encoding="UTF-8"?>
<svg id="_Слой_1" data-name="Слой_1" xmlns="http://www.w3.org/2000/svg" version="1.1" viewBox="0 0 254.9 40.9">
  <!-- Generator: Adobe Illustrator 29.5.1, SVG Export Plug-In . SVG Version: 2.1.0 Build 141)  -->
  <path d="M0,0h65.6c4.1,0,6.1,4.5,3.9,7.9l-13.2,20.5.5.5c1.5,1.5,3.4.9,4.5-.8L80.1,0h7.9c.7,0,1.2.8.8,1.4l-23.4,36c-2.8,4.3-8.9,4.8-12.3,1l-17.9-19.4c-.6-.6-1.4-1-2.2-1h-9.4c-2.5,0-5.2-1-7-2.8l-3.1-3.4h25c1.2,0,2.4.5,3.3,1.4l8.5,9.2,7.9-12.2c.9-1.4,0-3.2-1.7-3.2H10.8c-2.7,0-5.3-1.1-7.2-3.1L0,0Z" fill="#0a202e"/>
  <g>
    <path d="M109.6,24.6h-4.2l-6.6-18.4h4.2l4.7,13.8,4.8-13.8h3.9l-6.6,18.4Z" fill="#0a202e"/>
    <path d="M121.9,24.6V6.3h3.9v18.4h-3.9Z" fill="#0a202e"/>
    <path d="M144.1,20.7h-7.1l-1.4,3.9h-3.9l6.9-18.4h4.2l6.8,18.4h-4.2l-1.4-3.9ZM138,17.6h5l-2.5-7.1-2.5,7.1Z" fill="#0a202e"/>
    <path d="M155.4,24.6V6.3h3.9v14.8h8v3.5h-11.9Z" fill="#0a202e"/>
    <path d="M184.4,20.7h-7.1l-1.4,3.9h-3.9l6.9-18.4h4.2l6.8,18.4h-4.2l-1.4-3.9ZM178.4,17.6h5l-2.5-7.1-2.5,7.1Z" fill="#0a202e"/>
    <path d="M199.3,11.8v12.8h-3.6V6.3h4.2l8,12.2V6.3h3.6v18.4h-3.8l-8.4-12.8Z" fill="#0a202e"/>
    <path d="M217.8,15.4c0-5.4,4-9.5,9.2-9.5s8.6,3.2,9.3,7.9h-4.1c-.4-2.6-2.5-4.4-5.1-4.4s-5.3,2.5-5.3,6.1,2.1,6.1,5.3,6.1,4.6-1.8,5.1-4.5h4.1c-.6,4.8-4.4,7.9-9.3,7.9s-9.2-4.2-9.2-9.6Z" fill="#0a202e"/>
    <path d="M254.9,24.6h-12.3V6.3h12.2v3.4h-8.3v3.9h7.5v3.3h-7.5v4.4h8.5v3.4Z" fill="#0a202e"/>
  </g>
  <g>
    <path d="M106.6,37.3v2.5h-1.1v-7.2h2.5c1.6,0,2.7.8,2.7,2.3s-1,2.4-2.7,2.4h-1.4ZM106.6,33.5v2.8h1.4c1,0,1.6-.5,1.6-1.4s-.6-1.4-1.6-1.4h-1.4Z" fill="#0a202e"/>
    <path d="M115,39.8v-7.2h2.7c1.7,0,2.6.8,2.6,2.2s-.7,1.8-1.7,2.1l2,2.9h-1.3l-1.8-2.7h-1.3v2.7h-1.1ZM116.1,36.2h1.5c1,0,1.6-.5,1.6-1.3s-.6-1.3-1.6-1.3h-1.5v2.6Z" fill="#0a202e"/>
    <path d="M129.5,39.8h-4.6v-7.2h4.5v1h-3.4v2h3.1v1h-3.1v2.3h3.5v1Z" fill="#0a202e"/>
    <path d="M135.1,34.3v5.5h-1v-7.2h1.4l2.4,5.8,2.4-5.8h1.4v7.2h-1v-5.5l-2.3,5.5h-.9l-2.3-5.5Z" fill="#0a202e"/>
    <path d="M146.5,39.8v-7.2h1.1v7.2h-1.1Z" fill="#0a202e"/>
    <path d="M158.1,37.2c0,1.7-1.1,2.7-2.8,2.7s-2.8-1.1-2.8-2.7v-4.6h1.1v4.6c0,1,.6,1.7,1.7,1.7s1.7-.7,1.7-1.7v-4.6h1.1v4.6Z" fill="#0a202e"/>
    <path d="M163.9,34.3v5.5h-1v-7.2h1.4l2.4,5.8,2.4-5.8h1.4v7.2h-1v-5.5l-2.3,5.5h-.9l-2.3-5.5Z" fill="#0a202e"/>
    <path d="M182.5,39.8v-6.2h-2.3v-1h5.8v1h-2.3v6.2h-1.1Z" fill="#0a202e"/>
    <path d="M190.2,39.8v-7.2h2.7c1.7,0,2.6.8,2.6,2.2s-.7,1.8-1.7,2.1l2,2.9h-1.3l-1.8-2.7h-1.3v2.7h-1.1ZM191.3,36.2h1.5c1,0,1.6-.5,1.6-1.3s-.6-1.3-1.6-1.3h-1.5v2.6Z" fill="#0a202e"/>
    <path d="M204.4,38h-3.1l-.7,1.8h-1.1l2.8-7.2h1.2l2.7,7.2h-1.2l-.7-1.8ZM201.6,37.1h2.4l-1.2-3.3-1.2,3.3Z" fill="#0a202e"/>
    <path d="M211.5,34.2v5.6h-1v-7.2h1.2l3.7,5.5v-5.5h1v7.2h-1.1l-3.8-5.6Z" fill="#0a202e"/>
    <path d="M223.8,39.9c-1.7,0-2.8-1-2.9-2.4h1.1c0,.9.6,1.5,1.7,1.5s1.6-.4,1.6-1.2-.4-.9-1.2-1.1l-1-.2c-1-.2-1.9-.7-1.9-1.9s1.1-2.1,2.6-2.1,2.6.9,2.7,2.3h-1.1c0-.9-.7-1.5-1.6-1.5s-1.4.6-1.4,1.2.6.9,1.3,1.1l1.1.2c1.2.2,1.9.8,1.9,1.9s-1,2.2-2.7,2.2Z" fill="#0a202e"/>
    <path d="M231.1,39.8v-7.2h4.4v1h-3.3v2.3h2.8v1h-2.8v2.9h-1.1Z" fill="#0a202e"/>
    <path d="M244.5,39.8h-4.6v-7.2h4.5v1h-3.4v2h3.1v1h-3.1v2.3h3.5v1Z" fill="#0a202e"/>
    <path d="M249.1,39.8v-7.2h2.7c1.7,0,2.6.8,2.6,2.2s-.7,1.8-1.7,2.1l2,2.9h-1.3l-1.8-2.7h-1.3v2.7h-1.1ZM250.2,36.2h1.5c1,0,1.6-.5,1.6-1.3s-.6-1.3-1.6-1.3h-1.5v2.6Z" fill="#0a202e"/>
  </g>
</svg>