<?xml version="1.0" encoding="UTF-8"?>
<svg xmlns="http://www.w3.org/2000/svg" version="1.1" xmlns:xlink="http://www.w3.org/1999/xlink" viewBox="0 0 64 64">
  <!-- Generator: Adobe Illustrator 29.5.1, SVG Export Plug-In . SVG Version: 2.1.0 Build 141)  -->
  <defs>
    <clipPath id="clippath">
      <path d="M41.6,27.3c0-2.6-.7-4.8-2.2-6.5-.8-.9-1.7-1.5-2.8-2-1.1-.5-2.3-.8-3.7-.9-.2,0-.4-.2-.3-.4,0-.2.2-.4.4-.4,3,.2,5.3,1.3,7,3.2,1.7,1.9,2.5,4.2,2.4,7,0,.2-.2.4-.4.4h0c-.2,0-.4-.2-.4-.4ZM31.2,13.8c0-.2.2-.4.4-.4h0c4.1,0,7.5,1.4,10.3,4.2,1.4,1.4,2.4,3,3.1,4.9.7,1.9,1.1,4,1.1,6.4,0,.2-.2.4-.4.4h0c-.2,0-.4-.2-.4-.4,0-2.3-.4-4.3-1-6.1-.7-1.8-1.7-3.3-3-4.6-1.3-1.3-2.8-2.3-4.4-2.9-1.6-.7-3.4-1-5.4-1-.2,0-.4-.2-.4-.4ZM34,21.2c1.5,0,2.6.5,3.4,1.4.8.8,1.2,2,1.3,3.6,0,.2-.1.4-.4.4h0c-.2,0-.4-.2-.4-.4,0-1.3-.4-2.4-1.1-3.1-.6-.7-1.6-1.1-2.9-1.1-.2,0-.4-.2-.4-.4,0-.2.2-.4.4-.4ZM46.5,40.9h0c-.6,1.2-1.5,2.2-2.5,3.2h0c-1.4,1.2-2.7,1.6-4,1.1-5-2-10.1-4.9-14.7-9.8-4.7-4.9-7.9-10.4-9.5-15.6l-.2-.8c-.3-1.9.9-3.1,4.1-5.3h0c1.1-.7,2.2-.4,3,.2.7.5,2.5,3,2.5,3,.4.6,3,3.8,2.4,5.3-.2.9-1.7,1.8-2.5,2.6h0c-.3.6-.5,1-.4,1.9h0c.4,2.2,1.6,4.2,3.6,6.1,1.9,1.9,3.8,3,5.6,3.5.3,0,1.2.2,1.8-.6l1.2-1.6c.6-.8,2-1.3,3.4-.5.8.4,2.1,1.3,3,2,.9.7,2.8,2.3,2.8,2.3.9.8,1.1,1.9.5,3.1ZM54.9,6.2C53.4,4.8,47.1.1,33.1,0c0,0-16.5-1-24.5,6.5-4.5,4.6-6,11.3-6.2,19.6-.2,8.3-.4,23.9,14.3,28.1h0s0,6.4,0,6.4c0,0,0,2.6,1.6,3.1,2,.6,3.2-1.3,5.2-3.5,1.1-1.2,2.5-2.9,3.6-4.2,10,.9,17.7-1.1,18.6-1.4,2-.7,13.5-2.2,15.4-17.8,1.9-16.1-.9-26.2-6.1-30.8ZM56.7,35.9c-1.6,13-10.9,13.8-12.6,14.4-.7.2-7.5,2-16,1.4l-9.2,10.2v-11.8s0,0,0,0c-12.4-3.5-12-16.8-11.8-23.7s1.4-12.6,5.2-16.5c6.8-6.3,20.8-5.4,20.8-5.4,11.8,0,17.5,3.7,18.8,4.9,4.4,3.8,6.6,13,5,26.4Z" fill="#8f5db7"/>
    </clipPath>
  </defs>
  <g isolation="isolate">
    <g id="_Слой_1" data-name="Слой_1">
      <g id="VIBER_003">
        <g id="LOGO">
          <path d="M41.6,27.3c0-2.6-.7-4.8-2.2-6.5-.8-.9-1.7-1.5-2.8-2-1.1-.5-2.3-.8-3.7-.9-.2,0-.4-.2-.3-.4,0-.2.2-.4.4-.4,3,.2,5.3,1.3,7,3.2,1.7,1.9,2.5,4.2,2.4,7,0,.2-.2.4-.4.4h0c-.2,0-.4-.2-.4-.4ZM31.2,13.8c0-.2.2-.4.4-.4h0c4.1,0,7.5,1.4,10.3,4.2,1.4,1.4,2.4,3,3.1,4.9.7,1.9,1.1,4,1.1,6.4,0,.2-.2.4-.4.4h0c-.2,0-.4-.2-.4-.4,0-2.3-.4-4.3-1-6.1-.7-1.8-1.7-3.3-3-4.6-1.3-1.3-2.8-2.3-4.4-2.9-1.6-.7-3.4-1-5.4-1-.2,0-.4-.2-.4-.4ZM34,21.2c1.5,0,2.6.5,3.4,1.4.8.8,1.2,2,1.3,3.6,0,.2-.1.4-.4.4h0c-.2,0-.4-.2-.4-.4,0-1.3-.4-2.4-1.1-3.1-.6-.7-1.6-1.1-2.9-1.1-.2,0-.4-.2-.4-.4,0-.2.2-.4.4-.4ZM46.5,40.9h0c-.6,1.2-1.5,2.2-2.5,3.2h0c-1.4,1.2-2.7,1.6-4,1.1-5-2-10.1-4.9-14.7-9.8-4.7-4.9-7.9-10.4-9.5-15.6l-.2-.8c-.3-1.9.9-3.1,4.1-5.3h0c1.1-.7,2.2-.4,3,.2.7.5,2.5,3,2.5,3,.4.6,3,3.8,2.4,5.3-.2.9-1.7,1.8-2.5,2.6h0c-.3.6-.5,1-.4,1.9h0c.4,2.2,1.6,4.2,3.6,6.1,1.9,1.9,3.8,3,5.6,3.5.3,0,1.2.2,1.8-.6l1.2-1.6c.6-.8,2-1.3,3.4-.5.8.4,2.1,1.3,3,2,.9.7,2.8,2.3,2.8,2.3.9.8,1.1,1.9.5,3.1ZM54.9,6.2C53.4,4.8,47.1.1,33.1,0c0,0-16.5-1-24.5,6.5-4.5,4.6-6,11.3-6.2,19.6-.2,8.3-.4,23.9,14.3,28.1h0s0,6.4,0,6.4c0,0,0,2.6,1.6,3.1,2,.6,3.2-1.3,5.2-3.5,1.1-1.2,2.5-2.9,3.6-4.2,10,.9,17.7-1.1,18.6-1.4,2-.7,13.5-2.2,15.4-17.8,1.9-16.1-.9-26.2-6.1-30.8ZM56.7,35.9c-1.6,13-10.9,13.8-12.6,14.4-.7.2-7.5,2-16,1.4l-9.2,10.2v-11.8s0,0,0,0c-12.4-3.5-12-16.8-11.8-23.7s1.4-12.6,5.2-16.5c6.8-6.3,20.8-5.4,20.8-5.4,11.8,0,17.5,3.7,18.8,4.9,4.4,3.8,6.6,13,5,26.4Z" fill="#8f5db7"/>
          <g clip-path="url(#clippath)">
            <g>
              <g id="BACK">
                <rect x="-24.1" y="-27.5" width="112.3" height="112.3" rx="56.1" ry="56.1" fill="#8f5db7"/>
                <rect x="-24.1" y="-27.5" width="112.3" height="112.3" rx="35.1" ry="35.1" fill="#8f5db7"/>
              </g>
              <g id="COLOR">
                <rect x="-24.1" y="-27.5" width="112.3" height="112.3" rx="56.1" ry="56.1" fill="#8f5db7" mix-blend-mode="color"/>
                <rect x="-24.1" y="-27.5" width="112.3" height="112.3" rx="56.1" ry="56.1" fill="#8f5db7" mix-blend-mode="soft-light" opacity=".6"/>
              </g>
            </g>
          </g>
        </g>
      </g>
    </g>
  </g>
</svg>