<?xml version="1.0" encoding="UTF-8"?>
<svg xmlns="http://www.w3.org/2000/svg" version="1.1" xmlns:xlink="http://www.w3.org/1999/xlink" viewBox="0 0 64 64">
  <!-- Generator: Adobe Illustrator 29.5.1, SVG Export Plug-In . SVG Version: 2.1.0 Build 141)  -->
  <defs>
    <clipPath id="clippath">
      <path id="_x3C_Compound_Clipping_Path_x3E_" d="M32.6,0C15.4,0,1.4,14,1.4,31.2s1.6,11.4,4.5,16.1L.2,64l17.3-5.5c4.5,2.5,9.6,3.9,15.1,3.9,17.2,0,31.2-14,31.2-31.2S49.8,0,32.6,0Z" clip-rule="evenodd" fill="none"/>
    </clipPath>
  </defs>
  <g isolation="isolate">
    <g id="_Слой_1" data-name="Слой_1">
      <g id="WHATSAPP_003">
        <g id="LOGO">
          <g clip-path="url(#clippath)">
            <g id="BACK">
              <g id="BACK1" data-name="BACK">
                <rect x="-20.5" y="-21.9" width="106.1" height="106.1" rx="27.7" ry="27.7" fill="#2cb742"/>
                <rect x="-20.5" y="-21.9" width="106.1" height="106.1" rx="33.2" ry="33.2" fill="#2cb742"/>
              </g>
              <g id="COLOR">
                <rect x="-20.5" y="-21.9" width="106.1" height="106.1" rx="27.7" ry="27.7" fill="#00ff68" mix-blend-mode="color"/>
              </g>
            </g>
            <path id="LOGO1" data-name="LOGO" d="M32.6,0C15.4,0,1.4,14,1.4,31.2s1.6,11.4,4.5,16.1L.2,64l17.3-5.5c4.5,2.5,9.6,3.9,15.1,3.9,17.2,0,31.2-14,31.2-31.2S49.8,0,32.6,0ZM32.6,57.4c-5.3,0-10.3-1.6-14.4-4.3l-10.1,3.2,3.3-9.7c-3.1-4.3-5-9.6-5-15.4,0-14.5,11.8-26.2,26.2-26.2s26.2,11.8,26.2,26.2-11.8,26.2-26.2,26.2ZM48.3,38.4c.2.3.2,1.8-.4,3.6-.6,1.8-3.8,3.5-5.2,3.6-1.4.1-1.4,1.1-9.2-1.9-7.8-3.1-12.7-11-13.1-11.5-.4-.5-3.1-4.1-3.1-7.9s2-5.6,2.7-6.4c.7-.8,1.5-1,2-1s1,0,1.5,0,1.1-.3,1.7,1.3c.6,1.5,2.2,5.3,2.4,5.7.2.4.3.8,0,1.3-.3.5-.4.8-.8,1.3-.4.4-.8,1-1.1,1.3-.4.4-.8.8-.3,1.6.4.8,2,3.3,4.3,5.3,2.9,2.6,5.4,3.4,6.1,3.8.8.4,1.2.3,1.7-.2.4-.5,1.9-2.2,2.4-3,.5-.8,1-.6,1.7-.4.7.3,4.5,2.1,5.2,2.5.8.4,1.3.6,1.5.9Z" fill="#fff" fill-rule="evenodd"/>
          </g>
        </g>
      </g>
    </g>
  </g>
</svg>